<?xml version="1.0" encoding="utf-8" standalone="no"?>
<!DOCTYPE svg PUBLIC "-//W3C//DTD SVG 1.1//EN"
  "http://www.w3.org/Graphics/SVG/1.1/DTD/svg11.dtd">
<svg xmlns:xlink="http://www.w3.org/1999/xlink" width="174.72pt" height="170.6pt" viewBox="0 0 174.72 170.6" xmlns="http://www.w3.org/2000/svg" version="1.1">
 <metadata>
  <rdf:RDF xmlns:dc="http://purl.org/dc/elements/1.1/" xmlns:cc="http://creativecommons.org/ns#" xmlns:rdf="http://www.w3.org/1999/02/22-rdf-syntax-ns#">
   <cc:Work>
    <dc:type rdf:resource="http://purl.org/dc/dcmitype/StillImage"/>
    <dc:date>2025-11-14T15:12:28.993695</dc:date>
    <dc:format>image/svg+xml</dc:format>
    <dc:creator>
     <cc:Agent>
      <dc:title>Matplotlib v3.8.0, https://matplotlib.org/</dc:title>
     </cc:Agent>
    </dc:creator>
   </cc:Work>
  </rdf:RDF>
 </metadata>
 <defs>
  <style type="text/css">*{stroke-linejoin: round; stroke-linecap: butt}</style>
 </defs>
 <g id="figure_1">
  <g id="patch_1">
   <path d="M 0 170.6 
L 174.72 170.6 
L 174.72 0 
L 0 0 
z
" style="fill: #ffffff"/>
  </g>
  <g id="axes_1">
   <g id="line2d_1">
    <path d="M 31.56 57.56 
L 51.102857 57.493878 
L 53.16 57.2 
L 55.217143 56.67102 
L 57.274286 55.906939 
L 59.331429 54.907755 
L 61.388571 53.673469 
L 63.445714 52.204082 
L 65.502857 50.499592 
L 68.074286 48.038367 
L 70.645714 45.209796 
L 73.217143 42.013878 
L 74.76 39.92 
L 74.76 39.92 
L 72.188571 36.503673 
L 69.617143 33.454694 
L 67.045714 30.773061 
L 64.474286 28.458776 
L 62.417143 26.871837 
L 60.36 25.52 
L 58.302857 24.403265 
L 56.245714 23.521633 
L 54.188571 22.875102 
L 52.131429 22.463673 
L 50.074286 22.287347 
L 49.56 22.28 
L 31.56 22.28 
L 31.56 22.28 
L 33.5472 24.44 
L 35.2752 26.6 
L 36.744 28.76 
L 37.9536 30.92 
L 38.904 33.08 
L 39.5952 35.24 
L 40.0272 37.4 
L 40.2 39.56 
L 40.1136 41.72 
L 39.768 43.88 
L 39.1632 46.04 
L 38.2992 48.2 
L 37.176 50.36 
L 35.7936 52.52 
L 34.152 54.68 
L 32.2512 56.84 
L 31.56 57.56 
L 31.56 57.56 
" clip-path="url(#p1859378f86)" style="fill: none; stroke: #000000; stroke-width: 2; stroke-linecap: round"/>
   </g>
   <g id="line2d_2">
    <path d="M 26.16 57.56 
L 26.8512 56.84 
L 27.5136 56.12 
L 28.1472 55.4 
L 28.752 54.68 
L 29.328 53.96 
L 29.8752 53.24 
L 30.3936 52.52 
L 30.8832 51.8 
L 31.344 51.08 
L 31.776 50.36 
L 32.1792 49.64 
L 32.5536 48.92 
L 32.8992 48.2 
L 33.216 47.48 
L 33.504 46.76 
L 33.7632 46.04 
L 33.9936 45.32 
L 34.1952 44.6 
L 34.368 43.88 
L 34.512 43.16 
L 34.6272 42.44 
L 34.7136 41.72 
L 34.7712 41 
L 34.8 40.28 
L 34.8 39.56 
L 34.7712 38.84 
L 34.7136 38.12 
L 34.6272 37.4 
L 34.512 36.68 
L 34.368 35.96 
L 34.1952 35.24 
L 33.9936 34.52 
L 33.7632 33.8 
L 33.504 33.08 
L 33.216 32.36 
L 32.8992 31.64 
L 32.5536 30.92 
L 32.1792 30.2 
L 31.776 29.48 
L 31.344 28.76 
L 30.8832 28.04 
L 30.3936 27.32 
L 29.8752 26.6 
L 29.328 25.88 
L 28.752 25.16 
L 28.1472 24.44 
L 27.5136 23.72 
L 26.8512 23 
L 26.16 22.28 
" clip-path="url(#p1859378f86)" style="fill: none; stroke: #000000; stroke-width: 2; stroke-linecap: round"/>
   </g>
   <g id="line2d_3">
    <path d="M 18.96 48.92 
L 32.5536 48.92 
" clip-path="url(#p1859378f86)" style="fill: none; stroke: #000000; stroke-width: 2; stroke-linecap: round"/>
   </g>
   <g id="line2d_4">
    <path d="M 18.96 30.92 
L 32.5536 30.92 
" clip-path="url(#p1859378f86)" style="fill: none; stroke: #000000; stroke-width: 2; stroke-linecap: round"/>
   </g>
   <g id="line2d_5">
    <path d="M 74.76 39.92 
L 87.36 39.92 
" clip-path="url(#p1859378f86)" style="fill: none; stroke: #000000; stroke-width: 2; stroke-linecap: round"/>
   </g>
   <g id="line2d_6">
    <path d="M 99.96 57.56 
L 119.502857 57.493878 
L 121.56 57.2 
L 123.617143 56.67102 
L 125.674286 55.906939 
L 127.731429 54.907755 
L 129.788571 53.673469 
L 131.845714 52.204082 
L 133.902857 50.499592 
L 136.474286 48.038367 
L 139.045714 45.209796 
L 141.617143 42.013878 
L 143.16 39.92 
L 143.16 39.92 
L 140.588571 36.503673 
L 138.017143 33.454694 
L 135.445714 30.773061 
L 132.874286 28.458776 
L 130.817143 26.871837 
L 128.76 25.52 
L 126.702857 24.403265 
L 124.645714 23.521633 
L 122.588571 22.875102 
L 120.531429 22.463673 
L 118.474286 22.287347 
L 117.96 22.28 
L 99.96 22.28 
L 99.96 22.28 
L 101.9472 24.44 
L 103.6752 26.6 
L 105.144 28.76 
L 106.3536 30.92 
L 107.304 33.08 
L 107.9952 35.24 
L 108.4272 37.4 
L 108.6 39.56 
L 108.5136 41.72 
L 108.168 43.88 
L 107.5632 46.04 
L 106.6992 48.2 
L 105.576 50.36 
L 104.1936 52.52 
L 102.552 54.68 
L 100.6512 56.84 
L 99.96 57.56 
L 99.96 57.56 
" clip-path="url(#p1859378f86)" style="fill: none; stroke: #000000; stroke-width: 2; stroke-linecap: round"/>
   </g>
   <g id="line2d_7">
    <path d="M 94.56 57.56 
L 95.2512 56.84 
L 95.9136 56.12 
L 96.5472 55.4 
L 97.152 54.68 
L 97.728 53.96 
L 98.2752 53.24 
L 98.7936 52.52 
L 99.2832 51.8 
L 99.744 51.08 
L 100.176 50.36 
L 100.5792 49.64 
L 100.9536 48.92 
L 101.2992 48.2 
L 101.616 47.48 
L 101.904 46.76 
L 102.1632 46.04 
L 102.3936 45.32 
L 102.5952 44.6 
L 102.768 43.88 
L 102.912 43.16 
L 103.0272 42.44 
L 103.1136 41.72 
L 103.1712 41 
L 103.2 40.28 
L 103.2 39.56 
L 103.1712 38.84 
L 103.1136 38.12 
L 103.0272 37.4 
L 102.912 36.68 
L 102.768 35.96 
L 102.5952 35.24 
L 102.3936 34.52 
L 102.1632 33.8 
L 101.904 33.08 
L 101.616 32.36 
L 101.2992 31.64 
L 100.9536 30.92 
L 100.5792 30.2 
L 100.176 29.48 
L 99.744 28.76 
L 99.2832 28.04 
L 98.7936 27.32 
L 98.2752 26.6 
L 97.728 25.88 
L 97.152 25.16 
L 96.5472 24.44 
L 95.9136 23.72 
L 95.2512 23 
L 94.56 22.28 
" clip-path="url(#p1859378f86)" style="fill: none; stroke: #000000; stroke-width: 2; stroke-linecap: round"/>
   </g>
   <g id="line2d_8">
    <path d="M 87.36 48.92 
L 100.9536 48.92 
" clip-path="url(#p1859378f86)" style="fill: none; stroke: #000000; stroke-width: 2; stroke-linecap: round"/>
   </g>
   <g id="line2d_9">
    <path d="M 87.36 30.92 
L 100.9536 30.92 
" clip-path="url(#p1859378f86)" style="fill: none; stroke: #000000; stroke-width: 2; stroke-linecap: round"/>
   </g>
   <g id="line2d_10">
    <path d="M 143.16 39.92 
L 155.76 39.92 
" clip-path="url(#p1859378f86)" style="fill: none; stroke: #000000; stroke-width: 2; stroke-linecap: round"/>
   </g>
   <g id="line2d_11">
    <path d="M 54.96 165.92 
L 56.113264 165.883017 
L 57.261789 165.77222 
L 58.400855 165.588065 
L 59.525783 165.331308 
L 60.631948 165.003003 
L 61.714806 164.604502 
L 62.769907 164.13744 
L 63.792916 163.603737 
L 64.779628 163.005586 
L 65.72599 162.345445 
L 66.628111 161.626027 
L 67.482286 160.850288 
L 68.285004 160.021416 
L 69.032967 159.142816 
L 69.723101 158.2181 
L 70.35257 157.251066 
L 70.918788 156.245689 
L 71.419427 155.2061 
L 71.852432 154.136571 
L 72.216021 153.041497 
L 72.508702 151.925377 
L 72.729272 150.792798 
L 72.876824 149.648414 
L 72.950752 148.496928 
L 72.950752 147.343072 
L 72.876824 146.191586 
L 72.729272 145.047202 
L 72.508702 143.914623 
L 72.216021 142.798503 
L 71.852432 141.703429 
L 71.419427 140.6339 
L 70.918788 139.594311 
L 70.35257 138.588934 
L 69.723101 137.6219 
L 69.032967 136.697184 
L 68.285004 135.818584 
L 67.482286 134.989712 
L 66.628111 134.213973 
L 65.72599 133.494555 
L 64.779628 132.834414 
L 63.792916 132.236263 
L 62.769907 131.70256 
L 61.714806 131.235498 
L 60.631948 130.836997 
L 59.525783 130.508692 
L 58.400855 130.251935 
L 57.261789 130.06778 
L 56.113264 129.956983 
L 54.96 129.92 
L 54.96 129.92 
L 31.56 129.92 
L 31.56 147.92 
L 31.56 165.92 
L 54.96 165.92 
" clip-path="url(#p1859378f86)" style="fill: none; stroke: #000000; stroke-width: 2; stroke-linecap: round"/>
   </g>
   <g id="line2d_12">
    <path d="M 18.96 156.92 
L 31.56 156.92 
" clip-path="url(#p1859378f86)" style="fill: none; stroke: #000000; stroke-width: 2; stroke-linecap: round"/>
   </g>
   <g id="line2d_13">
    <path d="M 18.96 138.92 
L 31.56 138.92 
" clip-path="url(#p1859378f86)" style="fill: none; stroke: #000000; stroke-width: 2; stroke-linecap: round"/>
   </g>
   <g id="line2d_14">
    <path d="M 72.96 147.92 
L 85.56 147.92 
" clip-path="url(#p1859378f86)" style="fill: none; stroke: #000000; stroke-width: 2; stroke-linecap: round"/>
   </g>
   <g id="line2d_15">
    <path d="M 54.96 165.92 
L 56.113264 165.883017 
L 57.261789 165.77222 
L 58.400855 165.588065 
L 59.525783 165.331308 
L 60.631948 165.003003 
L 61.714806 164.604502 
L 62.769907 164.13744 
L 63.792916 163.603737 
L 64.779628 163.005586 
L 65.72599 162.345445 
L 66.628111 161.626027 
L 67.482286 160.850288 
L 68.285004 160.021416 
L 69.032967 159.142816 
L 69.723101 158.2181 
L 70.35257 157.251066 
L 70.918788 156.245689 
L 71.419427 155.2061 
L 71.852432 154.136571 
L 72.216021 153.041497 
L 72.508702 151.925377 
L 72.729272 150.792798 
L 72.876824 149.648414 
L 72.950752 148.496928 
L 72.950752 147.343072 
L 72.876824 146.191586 
L 72.729272 145.047202 
L 72.508702 143.914623 
L 72.216021 142.798503 
L 71.852432 141.703429 
L 71.419427 140.6339 
L 70.918788 139.594311 
L 70.35257 138.588934 
L 69.723101 137.6219 
L 69.032967 136.697184 
L 68.285004 135.818584 
L 67.482286 134.989712 
L 66.628111 134.213973 
L 65.72599 133.494555 
L 64.779628 132.834414 
L 63.792916 132.236263 
L 62.769907 131.70256 
L 61.714806 131.235498 
L 60.631948 130.836997 
L 59.525783 130.508692 
L 58.400855 130.251935 
L 57.261789 130.06778 
L 56.113264 129.956983 
L 54.96 129.92 
L 54.96 129.92 
L 31.56 129.92 
L 31.56 147.92 
L 31.56 165.92 
L 54.96 165.92 
" clip-path="url(#p1859378f86)" style="fill: none; stroke: #000000; stroke-width: 2; stroke-linecap: round"/>
   </g>
   <g id="line2d_16">
    <path d="M 18.96 156.92 
L 31.56 156.92 
" clip-path="url(#p1859378f86)" style="fill: none; stroke: #000000; stroke-width: 2; stroke-linecap: round"/>
   </g>
   <g id="line2d_17">
    <path d="M 18.96 138.92 
L 31.56 138.92 
" clip-path="url(#p1859378f86)" style="fill: none; stroke: #000000; stroke-width: 2; stroke-linecap: round"/>
   </g>
   <g id="line2d_18">
    <path d="M 72.96 147.92 
L 85.56 147.92 
" clip-path="url(#p1859378f86)" style="fill: none; stroke: #000000; stroke-width: 2; stroke-linecap: round"/>
   </g>
   <g id="text_1">
    <!-- M -->
    <g transform="translate(47.120312 15.768437) scale(0.14 -0.14)">
     <defs>
      <path id="DejaVuSans-4d" d="M 628 4666 
L 1569 4666 
L 2759 1491 
L 3956 4666 
L 4897 4666 
L 4897 0 
L 4281 0 
L 4281 4097 
L 3078 897 
L 2444 897 
L 1241 4097 
L 1241 0 
L 628 0 
L 628 4666 
z
" transform="scale(0.015625)"/>
     </defs>
     <use xlink:href="#DejaVuSans-4d"/>
    </g>
   </g>
   <g id="text_2">
    <!-- A1 -->
    <g transform="translate(112.317813 15.768437) scale(0.14 -0.14)">
     <defs>
      <path id="DejaVuSans-41" d="M 2188 4044 
L 1331 1722 
L 3047 1722 
L 2188 4044 
z
M 1831 4666 
L 2547 4666 
L 4325 0 
L 3669 0 
L 3244 1197 
L 1141 1197 
L 716 0 
L 50 0 
L 1831 4666 
z
" transform="scale(0.015625)"/>
      <path id="DejaVuSans-31" d="M 794 531 
L 1825 531 
L 1825 4091 
L 703 3866 
L 703 4441 
L 1819 4666 
L 2450 4666 
L 2450 531 
L 3481 531 
L 3481 0 
L 794 0 
L 794 531 
z
" transform="scale(0.015625)"/>
     </defs>
     <use xlink:href="#DejaVuSans-41"/>
     <use xlink:href="#DejaVuSans-31" x="68.408203"/>
    </g>
   </g>
   <g id="text_3">
    <!-- W -->
    <g transform="translate(45.33875 123.408437) scale(0.14 -0.14)">
     <defs>
      <path id="DejaVuSans-57" d="M 213 4666 
L 850 4666 
L 1831 722 
L 2809 4666 
L 3519 4666 
L 4500 722 
L 5478 4666 
L 6119 4666 
L 4947 0 
L 4153 0 
L 3169 4050 
L 2175 0 
L 1381 0 
L 213 4666 
z
" transform="scale(0.015625)"/>
     </defs>
     <use xlink:href="#DejaVuSans-57"/>
    </g>
   </g>
   <g id="text_4">
    <!-- B1 -->
    <g transform="translate(43.003594 123.408437) scale(0.14 -0.14)">
     <defs>
      <path id="DejaVuSans-42" d="M 1259 2228 
L 1259 519 
L 2272 519 
Q 2781 519 3026 730 
Q 3272 941 3272 1375 
Q 3272 1813 3026 2020 
Q 2781 2228 2272 2228 
L 1259 2228 
z
M 1259 4147 
L 1259 2741 
L 2194 2741 
Q 2656 2741 2882 2914 
Q 3109 3088 3109 3444 
Q 3109 3797 2882 3972 
Q 2656 4147 2194 4147 
L 1259 4147 
z
M 628 4666 
L 2241 4666 
Q 2963 4666 3353 4366 
Q 3744 4066 3744 3513 
Q 3744 3084 3544 2831 
Q 3344 2578 2956 2516 
Q 3422 2416 3680 2098 
Q 3938 1781 3938 1306 
Q 3938 681 3513 340 
Q 3088 0 2303 0 
L 628 0 
L 628 4666 
z
" transform="scale(0.015625)"/>
     </defs>
     <use xlink:href="#DejaVuSans-42"/>
     <use xlink:href="#DejaVuSans-31" x="68.603516"/>
    </g>
   </g>
   <g id="patch_2">
    <path d="M 18.96 33.62 
C 19.676048 33.62 20.362866 33.335511 20.869188 32.829188 
C 21.375511 32.322866 21.66 31.636048 21.66 30.92 
C 21.66 30.203952 21.375511 29.517134 20.869188 29.010812 
C 20.362866 28.504489 19.676048 28.22 18.96 28.22 
C 18.243952 28.22 17.557134 28.504489 17.050812 29.010812 
C 16.544489 29.517134 16.26 30.203952 16.26 30.92 
C 16.26 31.636048 16.544489 32.322866 17.050812 32.829188 
C 17.557134 33.335511 18.243952 33.62 18.96 33.62 
z
" clip-path="url(#p1859378f86)" style="stroke: #000000; stroke-width: 2; stroke-linejoin: miter"/>
   </g>
   <g id="text_5">
    <!-- 0 -->
    <g transform="translate(3.7525 34.783125) scale(0.14 -0.14)">
     <defs>
      <path id="DejaVuSans-30" d="M 2034 4250 
Q 1547 4250 1301 3770 
Q 1056 3291 1056 2328 
Q 1056 1369 1301 889 
Q 1547 409 2034 409 
Q 2525 409 2770 889 
Q 3016 1369 3016 2328 
Q 3016 3291 2770 3770 
Q 2525 4250 2034 4250 
z
M 2034 4750 
Q 2819 4750 3233 4129 
Q 3647 3509 3647 2328 
Q 3647 1150 3233 529 
Q 2819 -91 2034 -91 
Q 1250 -91 836 529 
Q 422 1150 422 2328 
Q 422 3509 836 4129 
Q 1250 4750 2034 4750 
z
" transform="scale(0.015625)"/>
     </defs>
     <use xlink:href="#DejaVuSans-30"/>
    </g>
   </g>
   <g id="patch_3">
    <path d="M 18.96 51.62 
C 19.676048 51.62 20.362866 51.335511 20.869188 50.829188 
C 21.375511 50.322866 21.66 49.636048 21.66 48.92 
C 21.66 48.203952 21.375511 47.517134 20.869188 47.010812 
C 20.362866 46.504489 19.676048 46.22 18.96 46.22 
C 18.243952 46.22 17.557134 46.504489 17.050812 47.010812 
C 16.544489 47.517134 16.26 48.203952 16.26 48.92 
C 16.26 49.636048 16.544489 50.322866 17.050812 50.829188 
C 17.557134 51.335511 18.243952 51.62 18.96 51.62 
z
" clip-path="url(#p1859378f86)" style="stroke: #000000; stroke-width: 2; stroke-linejoin: miter"/>
   </g>
   <g id="text_6">
    <!-- 1 -->
    <g transform="translate(3.7525 52.783125) scale(0.14 -0.14)">
     <use xlink:href="#DejaVuSans-31"/>
    </g>
   </g>
   <g id="patch_4">
    <path d="M 18.96 141.62 
C 19.676048 141.62 20.362866 141.335511 20.869188 140.829188 
C 21.375511 140.322866 21.66 139.636048 21.66 138.92 
C 21.66 138.203952 21.375511 137.517134 20.869188 137.010812 
C 20.362866 136.504489 19.676048 136.22 18.96 136.22 
C 18.243952 136.22 17.557134 136.504489 17.050812 137.010812 
C 16.544489 137.517134 16.26 138.203952 16.26 138.92 
C 16.26 139.636048 16.544489 140.322866 17.050812 140.829188 
C 17.557134 141.335511 18.243952 141.62 18.96 141.62 
z
" clip-path="url(#p1859378f86)" style="stroke: #000000; stroke-width: 2; stroke-linejoin: miter"/>
   </g>
   <g id="text_7">
    <!-- 0 -->
    <g transform="translate(3.7525 142.783125) scale(0.14 -0.14)">
     <use xlink:href="#DejaVuSans-30"/>
    </g>
   </g>
   <g id="patch_5">
    <path d="M 18.96 159.62 
C 19.676048 159.62 20.362866 159.335511 20.869188 158.829188 
C 21.375511 158.322866 21.66 157.636048 21.66 156.92 
C 21.66 156.203952 21.375511 155.517134 20.869188 155.010812 
C 20.362866 154.504489 19.676048 154.22 18.96 154.22 
C 18.243952 154.22 17.557134 154.504489 17.050812 155.010812 
C 16.544489 155.517134 16.26 156.203952 16.26 156.92 
C 16.26 157.636048 16.544489 158.322866 17.050812 158.829188 
C 17.557134 159.335511 18.243952 159.62 18.96 159.62 
z
" clip-path="url(#p1859378f86)" style="stroke: #000000; stroke-width: 2; stroke-linejoin: miter"/>
   </g>
   <g id="text_8">
    <!-- 1 -->
    <g transform="translate(3.7525 160.783125) scale(0.14 -0.14)">
     <use xlink:href="#DejaVuSans-31"/>
    </g>
   </g>
   <g id="patch_6">
    <path d="M 87.36 33.62 
C 88.076048 33.62 88.762866 33.335511 89.269188 32.829188 
C 89.775511 32.322866 90.06 31.636048 90.06 30.92 
C 90.06 30.203952 89.775511 29.517134 89.269188 29.010812 
C 88.762866 28.504489 88.076048 28.22 87.36 28.22 
C 86.643952 28.22 85.957134 28.504489 85.450812 29.010812 
C 84.944489 29.517134 84.66 30.203952 84.66 30.92 
C 84.66 31.636048 84.944489 32.322866 85.450812 32.829188 
C 85.957134 33.335511 86.643952 33.62 87.36 33.62 
z
" clip-path="url(#p1859378f86)" style="stroke: #000000; stroke-width: 2; stroke-linejoin: miter"/>
   </g>
   <g id="text_9">
    <!-- 0 -->
    <g transform="translate(72.1525 34.783125) scale(0.14 -0.14)">
     <use xlink:href="#DejaVuSans-30"/>
    </g>
   </g>
   <g id="patch_7">
    <path d="M 87.36 51.62 
C 88.076048 51.62 88.762866 51.335511 89.269188 50.829188 
C 89.775511 50.322866 90.06 49.636048 90.06 48.92 
C 90.06 48.203952 89.775511 47.517134 89.269188 47.010812 
C 88.762866 46.504489 88.076048 46.22 87.36 46.22 
C 86.643952 46.22 85.957134 46.504489 85.450812 47.010812 
C 84.944489 47.517134 84.66 48.203952 84.66 48.92 
C 84.66 49.636048 84.944489 50.322866 85.450812 50.829188 
C 85.957134 51.335511 86.643952 51.62 87.36 51.62 
z
" clip-path="url(#p1859378f86)" style="stroke: #000000; stroke-width: 2; stroke-linejoin: miter"/>
   </g>
   <g id="text_10">
    <!-- 1 -->
    <g transform="translate(72.1525 52.783125) scale(0.14 -0.14)">
     <use xlink:href="#DejaVuSans-31"/>
    </g>
   </g>
   <g id="patch_8">
    <path d="M 18.96 141.62 
C 19.676048 141.62 20.362866 141.335511 20.869188 140.829188 
C 21.375511 140.322866 21.66 139.636048 21.66 138.92 
C 21.66 138.203952 21.375511 137.517134 20.869188 137.010812 
C 20.362866 136.504489 19.676048 136.22 18.96 136.22 
C 18.243952 136.22 17.557134 136.504489 17.050812 137.010812 
C 16.544489 137.517134 16.26 138.203952 16.26 138.92 
C 16.26 139.636048 16.544489 140.322866 17.050812 140.829188 
C 17.557134 141.335511 18.243952 141.62 18.96 141.62 
z
" clip-path="url(#p1859378f86)" style="stroke: #000000; stroke-width: 2; stroke-linejoin: miter"/>
   </g>
   <g id="text_11">
    <!-- 0 -->
    <g transform="translate(3.7525 142.783125) scale(0.14 -0.14)">
     <use xlink:href="#DejaVuSans-30"/>
    </g>
   </g>
   <g id="patch_9">
    <path d="M 18.96 159.62 
C 19.676048 159.62 20.362866 159.335511 20.869188 158.829188 
C 21.375511 158.322866 21.66 157.636048 21.66 156.92 
C 21.66 156.203952 21.375511 155.517134 20.869188 155.010812 
C 20.362866 154.504489 19.676048 154.22 18.96 154.22 
C 18.243952 154.22 17.557134 154.504489 17.050812 155.010812 
C 16.544489 155.517134 16.26 156.203952 16.26 156.92 
C 16.26 157.636048 16.544489 158.322866 17.050812 158.829188 
C 17.557134 159.335511 18.243952 159.62 18.96 159.62 
z
" clip-path="url(#p1859378f86)" style="stroke: #000000; stroke-width: 2; stroke-linejoin: miter"/>
   </g>
   <g id="text_12">
    <!-- 1 -->
    <g transform="translate(3.7525 160.783125) scale(0.14 -0.14)">
     <use xlink:href="#DejaVuSans-31"/>
    </g>
   </g>
   <g id="patch_10">
    <path d="M 87.36 42.62 
C 88.076048 42.62 88.762866 42.335511 89.269188 41.829188 
C 89.775511 41.322866 90.06 40.636048 90.06 39.92 
C 90.06 39.203952 89.775511 38.517134 89.269188 38.010812 
C 88.762866 37.504489 88.076048 37.22 87.36 37.22 
C 86.643952 37.22 85.957134 37.504489 85.450812 38.010812 
C 84.944489 38.517134 84.66 39.203952 84.66 39.92 
C 84.66 40.636048 84.944489 41.322866 85.450812 41.829188 
C 85.957134 42.335511 86.643952 42.62 87.36 42.62 
z
" clip-path="url(#p1859378f86)" style="stroke: #000000; stroke-width: 2; stroke-linejoin: miter"/>
   </g>
   <g id="text_13">
    <!-- 0 -->
    <g transform="translate(93.66 43.783125) scale(0.14 -0.14)">
     <use xlink:href="#DejaVuSans-30"/>
    </g>
   </g>
   <g id="patch_11">
    <path d="M 85.56 150.62 
C 86.276048 150.62 86.962866 150.335511 87.469188 149.829188 
C 87.975511 149.322866 88.26 148.636048 88.26 147.92 
C 88.26 147.203952 87.975511 146.517134 87.469188 146.010812 
C 86.962866 145.504489 86.276048 145.22 85.56 145.22 
C 84.843952 145.22 84.157134 145.504489 83.650812 146.010812 
C 83.144489 146.517134 82.86 147.203952 82.86 147.92 
C 82.86 148.636048 83.144489 149.322866 83.650812 149.829188 
C 84.157134 150.335511 84.843952 150.62 85.56 150.62 
z
" clip-path="url(#p1859378f86)" style="stroke: #000000; stroke-width: 2; stroke-linejoin: miter"/>
   </g>
   <g id="text_14">
    <!-- 1 -->
    <g transform="translate(91.86 151.783125) scale(0.14 -0.14)">
     <use xlink:href="#DejaVuSans-31"/>
    </g>
   </g>
   <g id="patch_12">
    <path d="M 155.76 42.62 
C 156.476048 42.62 157.162866 42.335511 157.669188 41.829188 
C 158.175511 41.322866 158.46 40.636048 158.46 39.92 
C 158.46 39.203952 158.175511 38.517134 157.669188 38.010812 
C 157.162866 37.504489 156.476048 37.22 155.76 37.22 
C 155.043952 37.22 154.357134 37.504489 153.850812 38.010812 
C 153.344489 38.517134 153.06 39.203952 153.06 39.92 
C 153.06 40.636048 153.344489 41.322866 153.850812 41.829188 
C 154.357134 42.335511 155.043952 42.62 155.76 42.62 
z
" clip-path="url(#p1859378f86)" style="stroke: #000000; stroke-width: 2; stroke-linejoin: miter"/>
   </g>
   <g id="text_15">
    <!-- 0 -->
    <g transform="translate(162.06 43.783125) scale(0.14 -0.14)">
     <use xlink:href="#DejaVuSans-30"/>
    </g>
   </g>
   <g id="patch_13">
    <path d="M 85.56 150.62 
C 86.276048 150.62 86.962866 150.335511 87.469188 149.829188 
C 87.975511 149.322866 88.26 148.636048 88.26 147.92 
C 88.26 147.203952 87.975511 146.517134 87.469188 146.010812 
C 86.962866 145.504489 86.276048 145.22 85.56 145.22 
C 84.843952 145.22 84.157134 145.504489 83.650812 146.010812 
C 83.144489 146.517134 82.86 147.203952 82.86 147.92 
C 82.86 148.636048 83.144489 149.322866 83.650812 149.829188 
C 84.157134 150.335511 84.843952 150.62 85.56 150.62 
z
" clip-path="url(#p1859378f86)" style="stroke: #000000; stroke-width: 2; stroke-linejoin: miter"/>
   </g>
   <g id="text_16">
    <!-- 1 -->
    <g transform="translate(91.86 151.783125) scale(0.14 -0.14)">
     <use xlink:href="#DejaVuSans-31"/>
    </g>
   </g>
  </g>
 </g>
 <defs>
  <clipPath id="p1859378f86">
   <rect x="0" y="-0" width="174.72" height="170.6"/>
  </clipPath>
 </defs>
</svg>
