<?xml version="1.0" encoding="utf-8" standalone="no"?>
<!DOCTYPE svg PUBLIC "-//W3C//DTD SVG 1.1//EN"
  "http://www.w3.org/Graphics/SVG/1.1/DTD/svg11.dtd">
<svg xmlns:xlink="http://www.w3.org/1999/xlink" width="214.32pt" height="170.24pt" viewBox="0 0 214.32 170.24" xmlns="http://www.w3.org/2000/svg" version="1.1">
 <metadata>
  <rdf:RDF xmlns:dc="http://purl.org/dc/elements/1.1/" xmlns:cc="http://creativecommons.org/ns#" xmlns:rdf="http://www.w3.org/1999/02/22-rdf-syntax-ns#">
   <cc:Work>
    <dc:type rdf:resource="http://purl.org/dc/dcmitype/StillImage"/>
    <dc:date>2025-11-13T11:02:22.069767</dc:date>
    <dc:format>image/svg+xml</dc:format>
    <dc:creator>
     <cc:Agent>
      <dc:title>Matplotlib v3.8.0, https://matplotlib.org/</dc:title>
     </cc:Agent>
    </dc:creator>
   </cc:Work>
  </rdf:RDF>
 </metadata>
 <defs>
  <style type="text/css">*{stroke-linejoin: round; stroke-linecap: butt}</style>
 </defs>
 <g id="figure_1">
  <g id="patch_1">
   <path d="M 0 170.24 
L 214.32 170.24 
L 214.32 0 
L 0 0 
z
" style="fill: #ffffff"/>
  </g>
  <g id="axes_1">
   <g id="line2d_1">
    <path d="M 31.56 57.56 
L 51.102857 57.493878 
L 53.16 57.2 
L 55.217143 56.67102 
L 57.274286 55.906939 
L 59.331429 54.907755 
L 61.388571 53.673469 
L 63.445714 52.204082 
L 65.502857 50.499592 
L 68.074286 48.038367 
L 70.645714 45.209796 
L 73.217143 42.013878 
L 74.76 39.92 
L 74.76 39.92 
L 72.188571 36.503673 
L 69.617143 33.454694 
L 67.045714 30.773061 
L 64.474286 28.458776 
L 62.417143 26.871837 
L 60.36 25.52 
L 58.302857 24.403265 
L 56.245714 23.521633 
L 54.188571 22.875102 
L 52.131429 22.463673 
L 50.074286 22.287347 
L 49.56 22.28 
L 31.56 22.28 
L 31.56 22.28 
L 33.5472 24.44 
L 35.2752 26.6 
L 36.744 28.76 
L 37.9536 30.92 
L 38.904 33.08 
L 39.5952 35.24 
L 40.0272 37.4 
L 40.2 39.56 
L 40.1136 41.72 
L 39.768 43.88 
L 39.1632 46.04 
L 38.2992 48.2 
L 37.176 50.36 
L 35.7936 52.52 
L 34.152 54.68 
L 32.2512 56.84 
L 31.56 57.56 
L 31.56 57.56 
" clip-path="url(#p286cbce673)" style="fill: none; stroke: #000000; stroke-width: 2; stroke-linecap: round"/>
   </g>
   <g id="line2d_2">
    <path d="M 26.16 57.56 
L 26.8512 56.84 
L 27.5136 56.12 
L 28.1472 55.4 
L 28.752 54.68 
L 29.328 53.96 
L 29.8752 53.24 
L 30.3936 52.52 
L 30.8832 51.8 
L 31.344 51.08 
L 31.776 50.36 
L 32.1792 49.64 
L 32.5536 48.92 
L 32.8992 48.2 
L 33.216 47.48 
L 33.504 46.76 
L 33.7632 46.04 
L 33.9936 45.32 
L 34.1952 44.6 
L 34.368 43.88 
L 34.512 43.16 
L 34.6272 42.44 
L 34.7136 41.72 
L 34.7712 41 
L 34.8 40.28 
L 34.8 39.56 
L 34.7712 38.84 
L 34.7136 38.12 
L 34.6272 37.4 
L 34.512 36.68 
L 34.368 35.96 
L 34.1952 35.24 
L 33.9936 34.52 
L 33.7632 33.8 
L 33.504 33.08 
L 33.216 32.36 
L 32.8992 31.64 
L 32.5536 30.92 
L 32.1792 30.2 
L 31.776 29.48 
L 31.344 28.76 
L 30.8832 28.04 
L 30.3936 27.32 
L 29.8752 26.6 
L 29.328 25.88 
L 28.752 25.16 
L 28.1472 24.44 
L 27.5136 23.72 
L 26.8512 23 
L 26.16 22.28 
" clip-path="url(#p286cbce673)" style="fill: none; stroke: #000000; stroke-width: 2; stroke-linecap: round"/>
   </g>
   <g id="line2d_3">
    <path d="M 18.96 48.92 
L 32.5536 48.92 
" clip-path="url(#p286cbce673)" style="fill: none; stroke: #000000; stroke-width: 2; stroke-linecap: round"/>
   </g>
   <g id="line2d_4">
    <path d="M 18.96 30.92 
L 32.5536 30.92 
" clip-path="url(#p286cbce673)" style="fill: none; stroke: #000000; stroke-width: 2; stroke-linecap: round"/>
   </g>
   <g id="line2d_5">
    <path d="M 74.76 39.92 
L 87.36 39.92 
" clip-path="url(#p286cbce673)" style="fill: none; stroke: #000000; stroke-width: 2; stroke-linecap: round"/>
   </g>
   <g id="line2d_6">
    <path d="M 31.56 129.56 
L 51.102857 129.493878 
L 53.16 129.2 
L 55.217143 128.67102 
L 57.274286 127.906939 
L 59.331429 126.907755 
L 61.388571 125.673469 
L 63.445714 124.204082 
L 65.502857 122.499592 
L 68.074286 120.038367 
L 70.645714 117.209796 
L 73.217143 114.013878 
L 74.76 111.92 
L 74.76 111.92 
L 72.188571 108.503673 
L 69.617143 105.454694 
L 67.045714 102.773061 
L 64.474286 100.458776 
L 62.417143 98.871837 
L 60.36 97.52 
L 58.302857 96.403265 
L 56.245714 95.521633 
L 54.188571 94.875102 
L 52.131429 94.463673 
L 50.074286 94.287347 
L 49.56 94.28 
L 31.56 94.28 
L 31.56 94.28 
L 33.5472 96.44 
L 35.2752 98.6 
L 36.744 100.76 
L 37.9536 102.92 
L 38.904 105.08 
L 39.5952 107.24 
L 40.0272 109.4 
L 40.2 111.56 
L 40.1136 113.72 
L 39.768 115.88 
L 39.1632 118.04 
L 38.2992 120.2 
L 37.176 122.36 
L 35.7936 124.52 
L 34.152 126.68 
L 32.2512 128.84 
L 31.56 129.56 
L 31.56 129.56 
" clip-path="url(#p286cbce673)" style="fill: none; stroke: #000000; stroke-width: 2; stroke-linecap: round"/>
   </g>
   <g id="line2d_7">
    <path d="M 26.16 129.56 
L 26.8512 128.84 
L 27.5136 128.12 
L 28.1472 127.4 
L 28.752 126.68 
L 29.328 125.96 
L 29.8752 125.24 
L 30.3936 124.52 
L 30.8832 123.8 
L 31.344 123.08 
L 31.776 122.36 
L 32.1792 121.64 
L 32.5536 120.92 
L 32.8992 120.2 
L 33.216 119.48 
L 33.504 118.76 
L 33.7632 118.04 
L 33.9936 117.32 
L 34.1952 116.6 
L 34.368 115.88 
L 34.512 115.16 
L 34.6272 114.44 
L 34.7136 113.72 
L 34.7712 113 
L 34.8 112.28 
L 34.8 111.56 
L 34.7712 110.84 
L 34.7136 110.12 
L 34.6272 109.4 
L 34.512 108.68 
L 34.368 107.96 
L 34.1952 107.24 
L 33.9936 106.52 
L 33.7632 105.8 
L 33.504 105.08 
L 33.216 104.36 
L 32.8992 103.64 
L 32.5536 102.92 
L 32.1792 102.2 
L 31.776 101.48 
L 31.344 100.76 
L 30.8832 100.04 
L 30.3936 99.32 
L 29.8752 98.6 
L 29.328 97.88 
L 28.752 97.16 
L 28.1472 96.44 
L 27.5136 95.72 
L 26.8512 95 
L 26.16 94.28 
" clip-path="url(#p286cbce673)" style="fill: none; stroke: #000000; stroke-width: 2; stroke-linecap: round"/>
   </g>
   <g id="line2d_8">
    <path d="M 18.96 120.92 
L 32.5536 120.92 
" clip-path="url(#p286cbce673)" style="fill: none; stroke: #000000; stroke-width: 2; stroke-linecap: round"/>
   </g>
   <g id="line2d_9">
    <path d="M 18.96 102.92 
L 32.5536 102.92 
" clip-path="url(#p286cbce673)" style="fill: none; stroke: #000000; stroke-width: 2; stroke-linecap: round"/>
   </g>
   <g id="line2d_10">
    <path d="M 74.76 111.92 
L 87.36 111.92 
" clip-path="url(#p286cbce673)" style="fill: none; stroke: #000000; stroke-width: 2; stroke-linecap: round"/>
   </g>
   <g id="line2d_11">
    <path d="M 139.56 93.56 
L 159.102857 93.493878 
L 161.16 93.2 
L 163.217143 92.67102 
L 165.274286 91.906939 
L 167.331429 90.907755 
L 169.388571 89.673469 
L 171.445714 88.204082 
L 173.502857 86.499592 
L 176.074286 84.038367 
L 178.645714 81.209796 
L 181.217143 78.013878 
L 182.76 75.92 
L 182.76 75.92 
L 180.188571 72.503673 
L 177.617143 69.454694 
L 175.045714 66.773061 
L 172.474286 64.458776 
L 170.417143 62.871837 
L 168.36 61.52 
L 166.302857 60.403265 
L 164.245714 59.521633 
L 162.188571 58.875102 
L 160.131429 58.463673 
L 158.074286 58.287347 
L 157.56 58.28 
L 139.56 58.28 
L 139.56 58.28 
L 141.5472 60.44 
L 143.2752 62.6 
L 144.744 64.76 
L 145.9536 66.92 
L 146.904 69.08 
L 147.5952 71.24 
L 148.0272 73.4 
L 148.2 75.56 
L 148.1136 77.72 
L 147.768 79.88 
L 147.1632 82.04 
L 146.2992 84.2 
L 145.176 86.36 
L 143.7936 88.52 
L 142.152 90.68 
L 140.2512 92.84 
L 139.56 93.56 
L 139.56 93.56 
" clip-path="url(#p286cbce673)" style="fill: none; stroke: #000000; stroke-width: 2; stroke-linecap: round"/>
   </g>
   <g id="line2d_12">
    <path d="M 134.16 93.56 
L 134.8512 92.84 
L 135.5136 92.12 
L 136.1472 91.4 
L 136.752 90.68 
L 137.328 89.96 
L 137.8752 89.24 
L 138.3936 88.52 
L 138.8832 87.8 
L 139.344 87.08 
L 139.776 86.36 
L 140.1792 85.64 
L 140.5536 84.92 
L 140.8992 84.2 
L 141.216 83.48 
L 141.504 82.76 
L 141.7632 82.04 
L 141.9936 81.32 
L 142.1952 80.6 
L 142.368 79.88 
L 142.512 79.16 
L 142.6272 78.44 
L 142.7136 77.72 
L 142.7712 77 
L 142.8 76.28 
L 142.8 75.56 
L 142.7712 74.84 
L 142.7136 74.12 
L 142.6272 73.4 
L 142.512 72.68 
L 142.368 71.96 
L 142.1952 71.24 
L 141.9936 70.52 
L 141.7632 69.8 
L 141.504 69.08 
L 141.216 68.36 
L 140.8992 67.64 
L 140.5536 66.92 
L 140.1792 66.2 
L 139.776 65.48 
L 139.344 64.76 
L 138.8832 64.04 
L 138.3936 63.32 
L 137.8752 62.6 
L 137.328 61.88 
L 136.752 61.16 
L 136.1472 60.44 
L 135.5136 59.72 
L 134.8512 59 
L 134.16 58.28 
" clip-path="url(#p286cbce673)" style="fill: none; stroke: #000000; stroke-width: 2; stroke-linecap: round"/>
   </g>
   <g id="line2d_13">
    <path d="M 126.96 84.92 
L 140.5536 84.92 
" clip-path="url(#p286cbce673)" style="fill: none; stroke: #000000; stroke-width: 2; stroke-linecap: round"/>
   </g>
   <g id="line2d_14">
    <path d="M 126.96 66.92 
L 140.5536 66.92 
" clip-path="url(#p286cbce673)" style="fill: none; stroke: #000000; stroke-width: 2; stroke-linecap: round"/>
   </g>
   <g id="line2d_15">
    <path d="M 182.76 75.92 
L 195.36 75.92 
" clip-path="url(#p286cbce673)" style="fill: none; stroke: #000000; stroke-width: 2; stroke-linecap: round"/>
   </g>
   <g id="line2d_16">
    <path d="M 139.56 165.56 
L 159.102857 165.493878 
L 161.16 165.2 
L 163.217143 164.67102 
L 165.274286 163.906939 
L 167.331429 162.907755 
L 169.388571 161.673469 
L 171.445714 160.204082 
L 173.502857 158.499592 
L 176.074286 156.038367 
L 178.645714 153.209796 
L 181.217143 150.013878 
L 182.76 147.92 
L 182.76 147.92 
L 180.188571 144.503673 
L 177.617143 141.454694 
L 175.045714 138.773061 
L 172.474286 136.458776 
L 170.417143 134.871837 
L 168.36 133.52 
L 166.302857 132.403265 
L 164.245714 131.521633 
L 162.188571 130.875102 
L 160.131429 130.463673 
L 158.074286 130.287347 
L 157.56 130.28 
L 139.56 130.28 
L 139.56 130.28 
L 141.5472 132.44 
L 143.2752 134.6 
L 144.744 136.76 
L 145.9536 138.92 
L 146.904 141.08 
L 147.5952 143.24 
L 148.0272 145.4 
L 148.2 147.56 
L 148.1136 149.72 
L 147.768 151.88 
L 147.1632 154.04 
L 146.2992 156.2 
L 145.176 158.36 
L 143.7936 160.52 
L 142.152 162.68 
L 140.2512 164.84 
L 139.56 165.56 
L 139.56 165.56 
" clip-path="url(#p286cbce673)" style="fill: none; stroke: #000000; stroke-width: 2; stroke-linecap: round"/>
   </g>
   <g id="line2d_17">
    <path d="M 134.16 165.56 
L 134.8512 164.84 
L 135.5136 164.12 
L 136.1472 163.4 
L 136.752 162.68 
L 137.328 161.96 
L 137.8752 161.24 
L 138.3936 160.52 
L 138.8832 159.8 
L 139.344 159.08 
L 139.776 158.36 
L 140.1792 157.64 
L 140.5536 156.92 
L 140.8992 156.2 
L 141.216 155.48 
L 141.504 154.76 
L 141.7632 154.04 
L 141.9936 153.32 
L 142.1952 152.6 
L 142.368 151.88 
L 142.512 151.16 
L 142.6272 150.44 
L 142.7136 149.72 
L 142.7712 149 
L 142.8 148.28 
L 142.8 147.56 
L 142.7712 146.84 
L 142.7136 146.12 
L 142.6272 145.4 
L 142.512 144.68 
L 142.368 143.96 
L 142.1952 143.24 
L 141.9936 142.52 
L 141.7632 141.8 
L 141.504 141.08 
L 141.216 140.36 
L 140.8992 139.64 
L 140.5536 138.92 
L 140.1792 138.2 
L 139.776 137.48 
L 139.344 136.76 
L 138.8832 136.04 
L 138.3936 135.32 
L 137.8752 134.6 
L 137.328 133.88 
L 136.752 133.16 
L 136.1472 132.44 
L 135.5136 131.72 
L 134.8512 131 
L 134.16 130.28 
" clip-path="url(#p286cbce673)" style="fill: none; stroke: #000000; stroke-width: 2; stroke-linecap: round"/>
   </g>
   <g id="line2d_18">
    <path d="M 126.96 156.92 
L 140.5536 156.92 
" clip-path="url(#p286cbce673)" style="fill: none; stroke: #000000; stroke-width: 2; stroke-linecap: round"/>
   </g>
   <g id="line2d_19">
    <path d="M 126.96 138.92 
L 140.5536 138.92 
" clip-path="url(#p286cbce673)" style="fill: none; stroke: #000000; stroke-width: 2; stroke-linecap: round"/>
   </g>
   <g id="line2d_20">
    <path d="M 182.76 147.92 
L 195.36 147.92 
" clip-path="url(#p286cbce673)" style="fill: none; stroke: #000000; stroke-width: 2; stroke-linecap: round"/>
   </g>
   <g id="line2d_21">
    <path d="M 87.36 39.92 
L 107.16 53.42 
L 126.96 66.92 
" clip-path="url(#p286cbce673)" style="fill: none; stroke: #000000; stroke-width: 2; stroke-linecap: round"/>
   </g>
   <g id="line2d_22">
    <path d="M 87.36 111.92 
L 107.16 98.42 
L 126.96 84.92 
" clip-path="url(#p286cbce673)" style="fill: none; stroke: #000000; stroke-width: 2; stroke-linecap: round"/>
   </g>
   <g id="line2d_23">
    <path d="M 87.36 111.92 
L 107.16 125.42 
L 126.96 138.92 
" clip-path="url(#p286cbce673)" style="fill: none; stroke: #000000; stroke-width: 2; stroke-linecap: round"/>
   </g>
   <g id="text_1">
    <!-- X1 -->
    <g transform="translate(43.91125 15.768438) scale(0.14 -0.14)">
     <defs>
      <path id="DejaVuSans-58" d="M 403 4666 
L 1081 4666 
L 2241 2931 
L 3406 4666 
L 4084 4666 
L 2584 2425 
L 4184 0 
L 3506 0 
L 2194 1984 
L 872 0 
L 191 0 
L 1856 2491 
L 403 4666 
z
" transform="scale(0.015625)"/>
      <path id="DejaVuSans-31" d="M 794 531 
L 1825 531 
L 1825 4091 
L 703 3866 
L 703 4441 
L 1819 4666 
L 2450 4666 
L 2450 531 
L 3481 531 
L 3481 0 
L 794 0 
L 794 531 
z
" transform="scale(0.015625)"/>
     </defs>
     <use xlink:href="#DejaVuSans-58"/>
     <use xlink:href="#DejaVuSans-31" x="68.505859"/>
    </g>
   </g>
   <g id="text_2">
    <!-- X2 -->
    <g transform="translate(43.91125 87.768438) scale(0.14 -0.14)">
     <defs>
      <path id="DejaVuSans-32" d="M 1228 531 
L 3431 531 
L 3431 0 
L 469 0 
L 469 531 
Q 828 903 1448 1529 
Q 2069 2156 2228 2338 
Q 2531 2678 2651 2914 
Q 2772 3150 2772 3378 
Q 2772 3750 2511 3984 
Q 2250 4219 1831 4219 
Q 1534 4219 1204 4116 
Q 875 4013 500 3803 
L 500 4441 
Q 881 4594 1212 4672 
Q 1544 4750 1819 4750 
Q 2544 4750 2975 4387 
Q 3406 4025 3406 3419 
Q 3406 3131 3298 2873 
Q 3191 2616 2906 2266 
Q 2828 2175 2409 1742 
Q 1991 1309 1228 531 
z
" transform="scale(0.015625)"/>
     </defs>
     <use xlink:href="#DejaVuSans-58"/>
     <use xlink:href="#DejaVuSans-32" x="68.505859"/>
    </g>
   </g>
   <g id="text_3">
    <!-- X3 -->
    <g transform="translate(151.91125 51.768438) scale(0.14 -0.14)">
     <defs>
      <path id="DejaVuSans-33" d="M 2597 2516 
Q 3050 2419 3304 2112 
Q 3559 1806 3559 1356 
Q 3559 666 3084 287 
Q 2609 -91 1734 -91 
Q 1441 -91 1130 -33 
Q 819 25 488 141 
L 488 750 
Q 750 597 1062 519 
Q 1375 441 1716 441 
Q 2309 441 2620 675 
Q 2931 909 2931 1356 
Q 2931 1769 2642 2001 
Q 2353 2234 1838 2234 
L 1294 2234 
L 1294 2753 
L 1863 2753 
Q 2328 2753 2575 2939 
Q 2822 3125 2822 3475 
Q 2822 3834 2567 4026 
Q 2313 4219 1838 4219 
Q 1578 4219 1281 4162 
Q 984 4106 628 3988 
L 628 4550 
Q 988 4650 1302 4700 
Q 1616 4750 1894 4750 
Q 2613 4750 3031 4423 
Q 3450 4097 3450 3541 
Q 3450 3153 3228 2886 
Q 3006 2619 2597 2516 
z
" transform="scale(0.015625)"/>
     </defs>
     <use xlink:href="#DejaVuSans-58"/>
     <use xlink:href="#DejaVuSans-33" x="68.505859"/>
    </g>
   </g>
   <g id="text_4">
    <!-- X4 -->
    <g transform="translate(151.91125 123.768438) scale(0.14 -0.14)">
     <defs>
      <path id="DejaVuSans-34" d="M 2419 4116 
L 825 1625 
L 2419 1625 
L 2419 4116 
z
M 2253 4666 
L 3047 4666 
L 3047 1625 
L 3713 1625 
L 3713 1100 
L 3047 1100 
L 3047 0 
L 2419 0 
L 2419 1100 
L 313 1100 
L 313 1709 
L 2253 4666 
z
" transform="scale(0.015625)"/>
     </defs>
     <use xlink:href="#DejaVuSans-58"/>
     <use xlink:href="#DejaVuSans-34" x="68.505859"/>
    </g>
   </g>
   <g id="patch_2">
    <path d="M 18.96 33.62 
C 19.676048 33.62 20.362866 33.335511 20.869188 32.829188 
C 21.375511 32.322866 21.66 31.636048 21.66 30.92 
C 21.66 30.203952 21.375511 29.517134 20.869188 29.010812 
C 20.362866 28.504489 19.676048 28.22 18.96 28.22 
C 18.243952 28.22 17.557134 28.504489 17.050812 29.010812 
C 16.544489 29.517134 16.26 30.203952 16.26 30.92 
C 16.26 31.636048 16.544489 32.322866 17.050812 32.829188 
C 17.557134 33.335511 18.243952 33.62 18.96 33.62 
z
" clip-path="url(#p286cbce673)" style="stroke: #000000; stroke-width: 2; stroke-linejoin: miter"/>
   </g>
   <g id="text_5">
    <!-- 0 -->
    <g transform="translate(3.7525 34.783125) scale(0.14 -0.14)">
     <defs>
      <path id="DejaVuSans-30" d="M 2034 4250 
Q 1547 4250 1301 3770 
Q 1056 3291 1056 2328 
Q 1056 1369 1301 889 
Q 1547 409 2034 409 
Q 2525 409 2770 889 
Q 3016 1369 3016 2328 
Q 3016 3291 2770 3770 
Q 2525 4250 2034 4250 
z
M 2034 4750 
Q 2819 4750 3233 4129 
Q 3647 3509 3647 2328 
Q 3647 1150 3233 529 
Q 2819 -91 2034 -91 
Q 1250 -91 836 529 
Q 422 1150 422 2328 
Q 422 3509 836 4129 
Q 1250 4750 2034 4750 
z
" transform="scale(0.015625)"/>
     </defs>
     <use xlink:href="#DejaVuSans-30"/>
    </g>
   </g>
   <g id="patch_3">
    <path d="M 18.96 51.62 
C 19.676048 51.62 20.362866 51.335511 20.869188 50.829188 
C 21.375511 50.322866 21.66 49.636048 21.66 48.92 
C 21.66 48.203952 21.375511 47.517134 20.869188 47.010812 
C 20.362866 46.504489 19.676048 46.22 18.96 46.22 
C 18.243952 46.22 17.557134 46.504489 17.050812 47.010812 
C 16.544489 47.517134 16.26 48.203952 16.26 48.92 
C 16.26 49.636048 16.544489 50.322866 17.050812 50.829188 
C 17.557134 51.335511 18.243952 51.62 18.96 51.62 
z
" clip-path="url(#p286cbce673)" style="stroke: #000000; stroke-width: 2; stroke-linejoin: miter"/>
   </g>
   <g id="text_6">
    <!-- 1 -->
    <g transform="translate(3.7525 52.783125) scale(0.14 -0.14)">
     <use xlink:href="#DejaVuSans-31"/>
    </g>
   </g>
   <g id="patch_4">
    <path d="M 18.96 105.62 
C 19.676048 105.62 20.362866 105.335511 20.869188 104.829188 
C 21.375511 104.322866 21.66 103.636048 21.66 102.92 
C 21.66 102.203952 21.375511 101.517134 20.869188 101.010812 
C 20.362866 100.504489 19.676048 100.22 18.96 100.22 
C 18.243952 100.22 17.557134 100.504489 17.050812 101.010812 
C 16.544489 101.517134 16.26 102.203952 16.26 102.92 
C 16.26 103.636048 16.544489 104.322866 17.050812 104.829188 
C 17.557134 105.335511 18.243952 105.62 18.96 105.62 
z
" clip-path="url(#p286cbce673)" style="stroke: #000000; stroke-width: 2; stroke-linejoin: miter"/>
   </g>
   <g id="text_7">
    <!-- 0 -->
    <g transform="translate(3.7525 106.783125) scale(0.14 -0.14)">
     <use xlink:href="#DejaVuSans-30"/>
    </g>
   </g>
   <g id="patch_5">
    <path d="M 18.96 123.62 
C 19.676048 123.62 20.362866 123.335511 20.869188 122.829188 
C 21.375511 122.322866 21.66 121.636048 21.66 120.92 
C 21.66 120.203952 21.375511 119.517134 20.869188 119.010812 
C 20.362866 118.504489 19.676048 118.22 18.96 118.22 
C 18.243952 118.22 17.557134 118.504489 17.050812 119.010812 
C 16.544489 119.517134 16.26 120.203952 16.26 120.92 
C 16.26 121.636048 16.544489 122.322866 17.050812 122.829188 
C 17.557134 123.335511 18.243952 123.62 18.96 123.62 
z
" clip-path="url(#p286cbce673)" style="stroke: #000000; stroke-width: 2; stroke-linejoin: miter"/>
   </g>
   <g id="text_8">
    <!-- 1 -->
    <g transform="translate(3.7525 124.783125) scale(0.14 -0.14)">
     <use xlink:href="#DejaVuSans-31"/>
    </g>
   </g>
   <g id="patch_6">
    <path d="M 126.96 159.62 
C 127.676048 159.62 128.362866 159.335511 128.869188 158.829188 
C 129.375511 158.322866 129.66 157.636048 129.66 156.92 
C 129.66 156.203952 129.375511 155.517134 128.869188 155.010812 
C 128.362866 154.504489 127.676048 154.22 126.96 154.22 
C 126.243952 154.22 125.557134 154.504489 125.050812 155.010812 
C 124.544489 155.517134 124.26 156.203952 124.26 156.92 
C 124.26 157.636048 124.544489 158.322866 125.050812 158.829188 
C 125.557134 159.335511 126.243952 159.62 126.96 159.62 
z
" clip-path="url(#p286cbce673)" style="stroke: #000000; stroke-width: 2; stroke-linejoin: miter"/>
   </g>
   <g id="text_9">
    <!-- 0 -->
    <g transform="translate(111.7525 160.783125) scale(0.14 -0.14)">
     <use xlink:href="#DejaVuSans-30"/>
    </g>
   </g>
   <g id="patch_7">
    <path d="M 195.36 78.62 
C 196.076048 78.62 196.762866 78.335511 197.269188 77.829188 
C 197.775511 77.322866 198.06 76.636048 198.06 75.92 
C 198.06 75.203952 197.775511 74.517134 197.269188 74.010812 
C 196.762866 73.504489 196.076048 73.22 195.36 73.22 
C 194.643952 73.22 193.957134 73.504489 193.450812 74.010812 
C 192.944489 74.517134 192.66 75.203952 192.66 75.92 
C 192.66 76.636048 192.944489 77.322866 193.450812 77.829188 
C 193.957134 78.335511 194.643952 78.62 195.36 78.62 
z
" clip-path="url(#p286cbce673)" style="stroke: #000000; stroke-width: 2; stroke-linejoin: miter"/>
   </g>
   <g id="text_10">
    <!-- 1 -->
    <g transform="translate(201.66 79.783125) scale(0.14 -0.14)">
     <use xlink:href="#DejaVuSans-31"/>
    </g>
   </g>
   <g id="patch_8">
    <path d="M 195.36 150.62 
C 196.076048 150.62 196.762866 150.335511 197.269188 149.829188 
C 197.775511 149.322866 198.06 148.636048 198.06 147.92 
C 198.06 147.203952 197.775511 146.517134 197.269188 146.010812 
C 196.762866 145.504489 196.076048 145.22 195.36 145.22 
C 194.643952 145.22 193.957134 145.504489 193.450812 146.010812 
C 192.944489 146.517134 192.66 147.203952 192.66 147.92 
C 192.66 148.636048 192.944489 149.322866 193.450812 149.829188 
C 193.957134 150.335511 194.643952 150.62 195.36 150.62 
z
" clip-path="url(#p286cbce673)" style="stroke: #000000; stroke-width: 2; stroke-linejoin: miter"/>
   </g>
   <g id="text_11">
    <!-- 0 -->
    <g transform="translate(201.66 151.783125) scale(0.14 -0.14)">
     <use xlink:href="#DejaVuSans-30"/>
    </g>
   </g>
  </g>
 </g>
 <defs>
  <clipPath id="p286cbce673">
   <rect x="0" y="0" width="214.32" height="170.24"/>
  </clipPath>
 </defs>
</svg>
