<?xml version="1.0" encoding="utf-8" standalone="no"?>
<!DOCTYPE svg PUBLIC "-//W3C//DTD SVG 1.1//EN"
  "http://www.w3.org/Graphics/SVG/1.1/DTD/svg11.dtd">
<svg xmlns:xlink="http://www.w3.org/1999/xlink" width="394.32pt" height="62.96pt" viewBox="0 0 394.32 62.96" xmlns="http://www.w3.org/2000/svg" version="1.1">
 <metadata>
  <rdf:RDF xmlns:dc="http://purl.org/dc/elements/1.1/" xmlns:cc="http://creativecommons.org/ns#" xmlns:rdf="http://www.w3.org/1999/02/22-rdf-syntax-ns#">
   <cc:Work>
    <dc:type rdf:resource="http://purl.org/dc/dcmitype/StillImage"/>
    <dc:date>2025-11-14T14:51:49.431412</dc:date>
    <dc:format>image/svg+xml</dc:format>
    <dc:creator>
     <cc:Agent>
      <dc:title>Matplotlib v3.8.0, https://matplotlib.org/</dc:title>
     </cc:Agent>
    </dc:creator>
   </cc:Work>
  </rdf:RDF>
 </metadata>
 <defs>
  <style type="text/css">*{stroke-linejoin: round; stroke-linecap: butt}</style>
 </defs>
 <g id="figure_1">
  <g id="patch_1">
   <path d="M 0 62.96 
L 394.32 62.96 
L 394.32 0 
L 0 0 
z
" style="fill: #ffffff"/>
  </g>
  <g id="axes_1">
   <g id="line2d_1">
    <path d="M 31.56 57.92 
L 51.102857 57.853878 
L 53.16 57.56 
L 55.217143 57.03102 
L 57.274286 56.266939 
L 59.331429 55.267755 
L 61.388571 54.033469 
L 63.445714 52.564082 
L 65.502857 50.859592 
L 68.074286 48.398367 
L 70.645714 45.569796 
L 73.217143 42.373878 
L 74.76 40.28 
L 74.76 40.28 
L 72.188571 36.863673 
L 69.617143 33.814694 
L 67.045714 31.133061 
L 64.474286 28.818776 
L 62.417143 27.231837 
L 60.36 25.88 
L 58.302857 24.763265 
L 56.245714 23.881633 
L 54.188571 23.235102 
L 52.131429 22.823673 
L 50.074286 22.647347 
L 49.56 22.64 
L 31.56 22.64 
L 31.56 22.64 
L 33.5472 24.8 
L 35.2752 26.96 
L 36.744 29.12 
L 37.9536 31.28 
L 38.904 33.44 
L 39.5952 35.6 
L 40.0272 37.76 
L 40.2 39.92 
L 40.1136 42.08 
L 39.768 44.24 
L 39.1632 46.4 
L 38.2992 48.56 
L 37.176 50.72 
L 35.7936 52.88 
L 34.152 55.04 
L 32.2512 57.2 
L 31.56 57.92 
L 31.56 57.92 
" clip-path="url(#p21e90a3a04)" style="fill: none; stroke: #000000; stroke-width: 2; stroke-linecap: round"/>
   </g>
   <g id="line2d_2">
    <path d="M 26.16 57.92 
L 26.8512 57.2 
L 27.5136 56.48 
L 28.1472 55.76 
L 28.752 55.04 
L 29.328 54.32 
L 29.8752 53.6 
L 30.3936 52.88 
L 30.8832 52.16 
L 31.344 51.44 
L 31.776 50.72 
L 32.1792 50 
L 32.5536 49.28 
L 32.8992 48.56 
L 33.216 47.84 
L 33.504 47.12 
L 33.7632 46.4 
L 33.9936 45.68 
L 34.1952 44.96 
L 34.368 44.24 
L 34.512 43.52 
L 34.6272 42.8 
L 34.7136 42.08 
L 34.7712 41.36 
L 34.8 40.64 
L 34.8 39.92 
L 34.7712 39.2 
L 34.7136 38.48 
L 34.6272 37.76 
L 34.512 37.04 
L 34.368 36.32 
L 34.1952 35.6 
L 33.9936 34.88 
L 33.7632 34.16 
L 33.504 33.44 
L 33.216 32.72 
L 32.8992 32 
L 32.5536 31.28 
L 32.1792 30.56 
L 31.776 29.84 
L 31.344 29.12 
L 30.8832 28.4 
L 30.3936 27.68 
L 29.8752 26.96 
L 29.328 26.24 
L 28.752 25.52 
L 28.1472 24.8 
L 27.5136 24.08 
L 26.8512 23.36 
L 26.16 22.64 
" clip-path="url(#p21e90a3a04)" style="fill: none; stroke: #000000; stroke-width: 2; stroke-linecap: round"/>
   </g>
   <g id="line2d_3">
    <path d="M 18.96 49.28 
L 32.5536 49.28 
" clip-path="url(#p21e90a3a04)" style="fill: none; stroke: #000000; stroke-width: 2; stroke-linecap: round"/>
   </g>
   <g id="line2d_4">
    <path d="M 18.96 31.28 
L 32.5536 31.28 
" clip-path="url(#p21e90a3a04)" style="fill: none; stroke: #000000; stroke-width: 2; stroke-linecap: round"/>
   </g>
   <g id="line2d_5">
    <path d="M 74.76 40.28 
L 87.36 40.28 
" clip-path="url(#p21e90a3a04)" style="fill: none; stroke: #000000; stroke-width: 2; stroke-linecap: round"/>
   </g>
   <g id="line2d_6">
    <path d="M 198.96 58.28 
L 200.113264 58.243017 
L 201.261789 58.13222 
L 202.400855 57.948065 
L 203.525783 57.691308 
L 204.631948 57.363003 
L 205.714806 56.964502 
L 206.769907 56.49744 
L 207.792916 55.963737 
L 208.779628 55.365586 
L 209.72599 54.705445 
L 210.628111 53.986027 
L 211.482286 53.210288 
L 212.285004 52.381416 
L 213.032967 51.502816 
L 213.723101 50.5781 
L 214.35257 49.611066 
L 214.918788 48.605689 
L 215.419427 47.5661 
L 215.852432 46.496571 
L 216.216021 45.401497 
L 216.508702 44.285377 
L 216.729272 43.152798 
L 216.876824 42.008414 
L 216.950752 40.856928 
L 216.950752 39.703072 
L 216.876824 38.551586 
L 216.729272 37.407202 
L 216.508702 36.274623 
L 216.216021 35.158503 
L 215.852432 34.063429 
L 215.419427 32.9939 
L 214.918788 31.954311 
L 214.35257 30.948934 
L 213.723101 29.9819 
L 213.032967 29.057184 
L 212.285004 28.178584 
L 211.482286 27.349712 
L 210.628111 26.573973 
L 209.72599 25.854555 
L 208.779628 25.194414 
L 207.792916 24.596263 
L 206.769907 24.06256 
L 205.714806 23.595498 
L 204.631948 23.196997 
L 203.525783 22.868692 
L 202.400855 22.611935 
L 201.261789 22.42778 
L 200.113264 22.316983 
L 198.96 22.28 
L 198.96 22.28 
L 175.56 22.28 
L 175.56 40.28 
L 175.56 58.28 
L 198.96 58.28 
" clip-path="url(#p21e90a3a04)" style="fill: none; stroke: #000000; stroke-width: 2; stroke-linecap: round"/>
   </g>
   <g id="line2d_7">
    <path d="M 162.96 49.28 
L 175.56 49.28 
" clip-path="url(#p21e90a3a04)" style="fill: none; stroke: #000000; stroke-width: 2; stroke-linecap: round"/>
   </g>
   <g id="line2d_8">
    <path d="M 162.96 31.28 
L 175.56 31.28 
" clip-path="url(#p21e90a3a04)" style="fill: none; stroke: #000000; stroke-width: 2; stroke-linecap: round"/>
   </g>
   <g id="line2d_9">
    <path d="M 216.96 40.28 
L 229.56 40.28 
" clip-path="url(#p21e90a3a04)" style="fill: none; stroke: #000000; stroke-width: 2; stroke-linecap: round"/>
   </g>
   <g id="line2d_10">
    <path d="M 319.56 57.92 
L 339.102857 57.853878 
L 341.16 57.56 
L 343.217143 57.03102 
L 345.274286 56.266939 
L 347.331429 55.267755 
L 349.388571 54.033469 
L 351.445714 52.564082 
L 353.502857 50.859592 
L 356.074286 48.398367 
L 358.645714 45.569796 
L 361.217143 42.373878 
L 362.76 40.28 
L 362.76 40.28 
L 360.188571 36.863673 
L 357.617143 33.814694 
L 355.045714 31.133061 
L 352.474286 28.818776 
L 350.417143 27.231837 
L 348.36 25.88 
L 346.302857 24.763265 
L 344.245714 23.881633 
L 342.188571 23.235102 
L 340.131429 22.823673 
L 338.074286 22.647347 
L 337.56 22.64 
L 319.56 22.64 
L 319.56 22.64 
L 321.5472 24.8 
L 323.2752 26.96 
L 324.744 29.12 
L 325.9536 31.28 
L 326.904 33.44 
L 327.5952 35.6 
L 328.0272 37.76 
L 328.2 39.92 
L 328.1136 42.08 
L 327.768 44.24 
L 327.1632 46.4 
L 326.2992 48.56 
L 325.176 50.72 
L 323.7936 52.88 
L 322.152 55.04 
L 320.2512 57.2 
L 319.56 57.92 
L 319.56 57.92 
" clip-path="url(#p21e90a3a04)" style="fill: none; stroke: #000000; stroke-width: 2; stroke-linecap: round"/>
   </g>
   <g id="line2d_11">
    <path d="M 306.96 49.28 
L 325.9536 49.28 
" clip-path="url(#p21e90a3a04)" style="fill: none; stroke: #000000; stroke-width: 2; stroke-linecap: round"/>
   </g>
   <g id="line2d_12">
    <path d="M 306.96 31.28 
L 325.9536 31.28 
" clip-path="url(#p21e90a3a04)" style="fill: none; stroke: #000000; stroke-width: 2; stroke-linecap: round"/>
   </g>
   <g id="line2d_13">
    <path d="M 362.76 40.28 
L 375.36 40.28 
" clip-path="url(#p21e90a3a04)" style="fill: none; stroke: #000000; stroke-width: 2; stroke-linecap: round"/>
   </g>
   <g id="line2d_14">
    <path d="M 87.36 40.28 
L 125.16 35.78 
L 162.96 31.28 
" clip-path="url(#p21e90a3a04)" style="fill: none; stroke: #000000; stroke-width: 2; stroke-linecap: round"/>
   </g>
   <g id="line2d_15">
    <path d="M 229.56 40.28 
L 268.26 35.78 
L 306.96 31.28 
" clip-path="url(#p21e90a3a04)" style="fill: none; stroke: #000000; stroke-width: 2; stroke-linecap: round"/>
   </g>
   <g id="text_1">
    <!-- X1 -->
    <g transform="translate(43.91125 16.128437) scale(0.14 -0.14)">
     <defs>
      <path id="DejaVuSans-58" d="M 403 4666 
L 1081 4666 
L 2241 2931 
L 3406 4666 
L 4084 4666 
L 2584 2425 
L 4184 0 
L 3506 0 
L 2194 1984 
L 872 0 
L 191 0 
L 1856 2491 
L 403 4666 
z
" transform="scale(0.015625)"/>
      <path id="DejaVuSans-31" d="M 794 531 
L 1825 531 
L 1825 4091 
L 703 3866 
L 703 4441 
L 1819 4666 
L 2450 4666 
L 2450 531 
L 3481 531 
L 3481 0 
L 794 0 
L 794 531 
z
" transform="scale(0.015625)"/>
     </defs>
     <use xlink:href="#DejaVuSans-58"/>
     <use xlink:href="#DejaVuSans-31" x="68.505859"/>
    </g>
   </g>
   <g id="text_2">
    <!-- A1 -->
    <g transform="translate(187.017812 15.768437) scale(0.14 -0.14)">
     <defs>
      <path id="DejaVuSans-41" d="M 2188 4044 
L 1331 1722 
L 3047 1722 
L 2188 4044 
z
M 1831 4666 
L 2547 4666 
L 4325 0 
L 3669 0 
L 3244 1197 
L 1141 1197 
L 716 0 
L 50 0 
L 1831 4666 
z
" transform="scale(0.015625)"/>
     </defs>
     <use xlink:href="#DejaVuSans-41"/>
     <use xlink:href="#DejaVuSans-31" x="68.408203"/>
    </g>
   </g>
   <g id="text_3">
    <!-- O1 -->
    <g transform="translate(331.195937 16.128437) scale(0.14 -0.14)">
     <defs>
      <path id="DejaVuSans-4f" d="M 2522 4238 
Q 1834 4238 1429 3725 
Q 1025 3213 1025 2328 
Q 1025 1447 1429 934 
Q 1834 422 2522 422 
Q 3209 422 3611 934 
Q 4013 1447 4013 2328 
Q 4013 3213 3611 3725 
Q 3209 4238 2522 4238 
z
M 2522 4750 
Q 3503 4750 4090 4092 
Q 4678 3434 4678 2328 
Q 4678 1225 4090 567 
Q 3503 -91 2522 -91 
Q 1538 -91 948 565 
Q 359 1222 359 2328 
Q 359 3434 948 4092 
Q 1538 4750 2522 4750 
z
" transform="scale(0.015625)"/>
     </defs>
     <use xlink:href="#DejaVuSans-4f"/>
     <use xlink:href="#DejaVuSans-31" x="78.710938"/>
    </g>
   </g>
   <g id="patch_2">
    <path d="M 18.96 33.98 
C 19.676048 33.98 20.362866 33.695511 20.869188 33.189188 
C 21.375511 32.682866 21.66 31.996048 21.66 31.28 
C 21.66 30.563952 21.375511 29.877134 20.869188 29.370812 
C 20.362866 28.864489 19.676048 28.58 18.96 28.58 
C 18.243952 28.58 17.557134 28.864489 17.050812 29.370812 
C 16.544489 29.877134 16.26 30.563952 16.26 31.28 
C 16.26 31.996048 16.544489 32.682866 17.050812 33.189188 
C 17.557134 33.695511 18.243952 33.98 18.96 33.98 
z
" clip-path="url(#p21e90a3a04)" style="stroke: #000000; stroke-width: 2; stroke-linejoin: miter"/>
   </g>
   <g id="text_4">
    <!-- 1 -->
    <g transform="translate(3.7525 35.143125) scale(0.14 -0.14)">
     <use xlink:href="#DejaVuSans-31"/>
    </g>
   </g>
   <g id="patch_3">
    <path d="M 18.96 51.98 
C 19.676048 51.98 20.362866 51.695511 20.869188 51.189188 
C 21.375511 50.682866 21.66 49.996048 21.66 49.28 
C 21.66 48.563952 21.375511 47.877134 20.869188 47.370812 
C 20.362866 46.864489 19.676048 46.58 18.96 46.58 
C 18.243952 46.58 17.557134 46.864489 17.050812 47.370812 
C 16.544489 47.877134 16.26 48.563952 16.26 49.28 
C 16.26 49.996048 16.544489 50.682866 17.050812 51.189188 
C 17.557134 51.695511 18.243952 51.98 18.96 51.98 
z
" clip-path="url(#p21e90a3a04)" style="stroke: #000000; stroke-width: 2; stroke-linejoin: miter"/>
   </g>
   <g id="text_5">
    <!-- 0 -->
    <g transform="translate(3.7525 53.143125) scale(0.14 -0.14)">
     <defs>
      <path id="DejaVuSans-30" d="M 2034 4250 
Q 1547 4250 1301 3770 
Q 1056 3291 1056 2328 
Q 1056 1369 1301 889 
Q 1547 409 2034 409 
Q 2525 409 2770 889 
Q 3016 1369 3016 2328 
Q 3016 3291 2770 3770 
Q 2525 4250 2034 4250 
z
M 2034 4750 
Q 2819 4750 3233 4129 
Q 3647 3509 3647 2328 
Q 3647 1150 3233 529 
Q 2819 -91 2034 -91 
Q 1250 -91 836 529 
Q 422 1150 422 2328 
Q 422 3509 836 4129 
Q 1250 4750 2034 4750 
z
" transform="scale(0.015625)"/>
     </defs>
     <use xlink:href="#DejaVuSans-30"/>
    </g>
   </g>
   <g id="patch_4">
    <path d="M 162.96 51.98 
C 163.676048 51.98 164.362866 51.695511 164.869188 51.189188 
C 165.375511 50.682866 165.66 49.996048 165.66 49.28 
C 165.66 48.563952 165.375511 47.877134 164.869188 47.370812 
C 164.362866 46.864489 163.676048 46.58 162.96 46.58 
C 162.243952 46.58 161.557134 46.864489 161.050812 47.370812 
C 160.544489 47.877134 160.26 48.563952 160.26 49.28 
C 160.26 49.996048 160.544489 50.682866 161.050812 51.189188 
C 161.557134 51.695511 162.243952 51.98 162.96 51.98 
z
" clip-path="url(#p21e90a3a04)" style="stroke: #000000; stroke-width: 2; stroke-linejoin: miter"/>
   </g>
   <g id="text_6">
    <!-- 1 -->
    <g transform="translate(147.7525 53.143125) scale(0.14 -0.14)">
     <use xlink:href="#DejaVuSans-31"/>
    </g>
   </g>
   <g id="patch_5">
    <path d="M 375.36 42.98 
C 376.076048 42.98 376.762866 42.695511 377.269188 42.189188 
C 377.775511 41.682866 378.06 40.996048 378.06 40.28 
C 378.06 39.563952 377.775511 38.877134 377.269188 38.370812 
C 376.762866 37.864489 376.076048 37.58 375.36 37.58 
C 374.643952 37.58 373.957134 37.864489 373.450812 38.370812 
C 372.944489 38.877134 372.66 39.563952 372.66 40.28 
C 372.66 40.996048 372.944489 41.682866 373.450812 42.189188 
C 373.957134 42.695511 374.643952 42.98 375.36 42.98 
z
" clip-path="url(#p21e90a3a04)" style="stroke: #000000; stroke-width: 2; stroke-linejoin: miter"/>
   </g>
   <g id="text_7">
    <!-- 0 -->
    <g transform="translate(381.66 44.143125) scale(0.14 -0.14)">
     <use xlink:href="#DejaVuSans-30"/>
    </g>
   </g>
   <g id="patch_6">
    <path d="M 229.56 42.98 
C 230.276048 42.98 230.962866 42.695511 231.469188 42.189188 
C 231.975511 41.682866 232.26 40.996048 232.26 40.28 
C 232.26 39.563952 231.975511 38.877134 231.469188 38.370812 
C 230.962866 37.864489 230.276048 37.58 229.56 37.58 
C 228.843952 37.58 228.157134 37.864489 227.650812 38.370812 
C 227.144489 38.877134 226.86 39.563952 226.86 40.28 
C 226.86 40.996048 227.144489 41.682866 227.650812 42.189188 
C 228.157134 42.695511 228.843952 42.98 229.56 42.98 
z
" clip-path="url(#p21e90a3a04)" style="stroke: #000000; stroke-width: 2; stroke-linejoin: miter"/>
   </g>
   <g id="text_8">
    <!-- 1 -->
    <g transform="translate(235.86 44.143125) scale(0.14 -0.14)">
     <use xlink:href="#DejaVuSans-31"/>
    </g>
   </g>
   <g id="patch_7">
    <path d="M 87.36 42.98 
C 88.076048 42.98 88.762866 42.695511 89.269188 42.189188 
C 89.775511 41.682866 90.06 40.996048 90.06 40.28 
C 90.06 39.563952 89.775511 38.877134 89.269188 38.370812 
C 88.762866 37.864489 88.076048 37.58 87.36 37.58 
C 86.643952 37.58 85.957134 37.864489 85.450812 38.370812 
C 84.944489 38.877134 84.66 39.563952 84.66 40.28 
C 84.66 40.996048 84.944489 41.682866 85.450812 42.189188 
C 85.957134 42.695511 86.643952 42.98 87.36 42.98 
z
" clip-path="url(#p21e90a3a04)" style="stroke: #000000; stroke-width: 2; stroke-linejoin: miter"/>
   </g>
   <g id="text_9">
    <!-- 1 -->
    <g transform="translate(93.66 44.143125) scale(0.14 -0.14)">
     <use xlink:href="#DejaVuSans-31"/>
    </g>
   </g>
  </g>
 </g>
 <defs>
  <clipPath id="p21e90a3a04">
   <rect x="0" y="0" width="394.32" height="62.96"/>
  </clipPath>
 </defs>
</svg>
